Coordinates
version=1
nRows=17
nColumns=40
inDegrees=yes

Units are S.I. units (second, meters, Newtons, ...)
Angles are in degrees.

endheader
time	pelvis_tilt	pelvis_list	pelvis_rotation	pelvis_tx	pelvis_ty	pelvis_tz	hip_flexion_r	hip_adduction_r	hip_rotation_r	knee_angle_r	knee_angle_r_beta	ankle_angle_r	subtalar_angle_r	mtp_angle_r	hip_flexion_l	hip_adduction_l	hip_rotation_l	knee_angle_l	knee_angle_l_beta	ankle_angle_l	subtalar_angle_l	mtp_angle_l	lumbar_extension	lumbar_bending	lumbar_rotation	arm_flex_r	arm_add_r	arm_rot_r	elbow_flex_r	pro_sup_r	wrist_flex_r	wrist_dev_r	arm_flex_l	arm_add_l	arm_rot_l	elbow_flex_l	pro_sup_l	wrist_flex_l	wrist_dev_l
     14.15000000	     -6.39124060	     -3.93308494	     14.30863770	      0.98334662	      0.92050705	      0.46665971	      3.33962436	      0.73987298	    -17.73131999	     17.13465612	     17.13465612	     17.72876494	     -7.45902341	     -0.53658337	     27.24465440	     -1.87599123	      3.85354632	     21.78730396	     21.78730396	      4.30462220	     -9.78958408	     -1.41594551	     -7.87929898	      1.85016960	      4.16119473	     61.32177544	    -19.17488019	     -5.24386591	     73.22490457	     45.00399073	      0.00000000	      0.00000000	    -18.30625396	    -10.00373716	     25.66591925	     29.06576526	     43.23916058	      0.00000000	      0.00000000
     14.17285714	     -6.45382345	     -3.89898101	     13.93429786	      0.98466130	      0.92108808	      0.46216543	      2.88443944	      0.35370079	    -18.01211259	     17.00915657	     17.00915657	     17.32524834	     -6.50160553	     -1.19495777	     27.01402212	     -1.68716899	      3.74520186	     22.28865380	     22.28865380	      5.39184345	    -10.04829874	      0.03250617	     -7.76953415	      1.87431555	      4.05741903	     61.35993201	    -18.54788563	     -5.82194955	     70.25046101	     45.14933982	      0.00000000	      0.00000000	    -18.03823149	    -10.19916709	     25.18938133	     29.08461218	     43.45315601	      0.00000000	      0.00000000
     14.19571429	     -6.53156602	     -3.89573371	     13.49129524	      0.98594863	      0.92166862	      0.45779163	      2.51459596	      0.02863005	    -17.95777602	     16.96008293	     16.96008293	     17.04593658	     -5.84842676	     -1.34427832	     26.64738899	     -1.57281454	      3.53100989	     22.45256556	     22.45256556	      5.90549542	    -10.37739726	      0.17046474	     -7.69940844	      1.95741846	      4.36916927	     60.65777268	    -18.67314607	     -6.04130315	     68.96679913	     45.20325601	      0.00000000	      0.00000000	    -17.46181047	    -10.51479762	     24.92035083	     29.22936143	     43.53629492	      0.00000000	      0.00000000
     14.21857143	     -6.60480126	     -3.88205549	     13.03108576	      0.98713580	      0.92224719	      0.45341851	      2.14441039	     -0.33629359	    -18.00886456	     16.90711021	     16.90711021	     16.74662038	     -5.02712932	     -1.57904857	     26.26234752	     -1.44337636	      3.29923374	     22.58904427	     22.58904427	      6.41306135	    -10.73523686	      0.44516843	     -7.63737918	      2.04276072	      4.54451365	     59.91189645	    -18.60040528	     -6.39981205	     67.17030933	     45.27885600	      0.00000000	      0.00000000	    -16.89609876	    -10.79318535	     24.63232460	     29.28537780	     43.62560173	      0.00000000	      0.00000000
     14.24142857	     -6.67832992	     -3.91654437	     12.53705744	      0.98819773	      0.92273924	      0.44917164	      1.85456166	     -0.61593108	    -17.77303034	     16.92980419	     16.92980419	     16.47475910	     -4.64635527	     -1.57859345	     25.91748841	     -1.38424242	      3.02006652	     22.75320706	     22.75320706	      6.81570771	    -11.07790621	      0.40801557	     -7.60833113	      2.21287043	      4.49267494	     58.74235486	    -18.34463046	     -6.37706258	     66.39764252	     45.29946524	      0.00000000	      0.00000000	    -16.34650124	    -11.05115969	     24.50961511	     29.38405295	     43.65747005	      0.00000000	      0.00000000
     14.26428571	     -6.76358979	     -3.91409645	     12.03086256	      0.98921151	      0.92332314	      0.44477574	      1.42053967	     -0.99561786	    -17.97811541	     16.68201149	     16.68201149	     16.16914050	     -3.39327242	     -1.81959126	     25.50017001	     -1.24695072	      2.82871261	     22.78377273	     22.78377273	      7.27617170	    -11.47474059	      0.82108660	     -7.49908991	      2.31320210	      4.99376520	     57.63505520	    -18.76547045	     -7.06059497	     63.53939820	     45.42017946	      0.00000000	      0.00000000	    -15.45345203	    -11.38580807	     24.10100028	     29.46978839	     43.75922693	      0.00000000	      0.00000000
     14.28714286	     -6.79507343	     -3.90178803	     11.47553072	      0.99007179	      0.92375944	      0.44042382	      1.09658078	     -1.44346713	    -18.19699838	     16.73505119	     16.73505119	     15.93840556	     -2.18084720	     -2.29831613	     25.12884311	     -1.10510644	      2.63764267	     23.01504825	     23.01504825	      7.99547252	    -11.94544518	      1.69313003	     -7.43557477	      2.47672463	      4.80777270	     56.97541569	    -17.96443782	     -8.02798442	     59.69433138	     45.58762661	      0.00000000	      0.00000000	    -14.66333031	    -11.43039504	     23.34049457	     29.13713577	     43.95204636	      0.00000000	      0.00000000
     14.31000000	     -6.87807897	     -3.98250172	     10.91867039	      0.99073314	      0.92403952	      0.43617597	      0.88908727	     -1.75080680	    -18.05262510	     16.78767352	     16.78767352	     15.64511649	     -1.45750608	     -2.65348418	     24.89100672	     -1.06317180	      2.39406428	     23.31249847	     23.31249847	      8.72269538	    -12.25450830	      2.67651025	     -7.40575251	      2.72522589	      4.39790515	     55.98700613	    -17.10297885	     -8.93577998	     56.15774739	     45.73589837	      0.00000000	      0.00000000	    -13.90243493	    -11.32579934	     21.75267447	     28.82918180	     44.30555338	      0.00000000	      0.00000000
     14.33285714	     -6.92717016	     -4.07696089	     10.30628997	      0.99135257	      0.92417845	      0.43202810	      0.75862654	     -2.06653983	    -17.80458999	     17.03823927	     17.03823927	     15.44940852	     -0.86950427	     -2.81340427	     24.64161488	     -1.05426493	      2.15324155	     23.61971965	     23.61971965	      9.13923251	    -12.76567463	      2.76499489	     -7.44028728	      2.99526851	      4.76480749	     53.88207022	    -17.42920258	     -9.16208046	     54.31197337	     45.79817479	      0.00000000	      0.00000000	    -12.65476923	    -11.59462125	     21.23696825	     29.13933887	     44.41914654	      0.00000000	      0.00000000
     14.35571429	     -6.81267429	     -4.20904673	      9.68244823	      0.99195077	      0.92435015	      0.42790627	      0.59256623	     -2.33690767	    -17.42638532	     17.51571976	     17.51571976	     15.28292153	     -0.53492828	     -2.96739057	     24.25966662	     -1.11523574	      1.90565406	     23.98742855	     23.98742855	      9.57556003	    -13.26394774	      2.71746263	     -7.68981262	      3.40232476	      4.54068696	     51.56288232	    -16.96148683	     -9.12388430	     53.05841336	     45.82766335	      0.00000000	      0.00000000	    -11.53426641	    -11.78255202	     21.03677381	     29.38117950	     44.47031827	      0.00000000	      0.00000000
     14.37857143	     -6.97248034	     -4.27668564	      8.97534197	      0.99205692	      0.92383613	      0.42381703	      1.21811979	     -2.95482196	    -17.13454395	     18.93835036	     18.93835036	     15.14870462	     -0.09383804	     -3.81479643	     24.30213570	     -1.04729188	      1.65844745	     24.57896447	     24.57896447	     10.10889962	    -13.96788725	      3.05668120	     -7.64041910	      3.60395435	      5.23315359	     49.16998469	    -17.64164179	     -9.70044031	     49.87697182	     45.95302441	      0.00000000	      0.00000000	     -9.65787104	    -11.93927642	     20.44273755	     29.49104391	     44.60447566	      0.00000000	      0.00000000
     14.40142857	     -6.90491270	     -4.37633875	      8.28610901	      0.99219559	      0.92349759	      0.41977188	      1.64695194	     -3.44747455	    -16.58429685	     20.30716179	     20.30716179	     14.12405926	     -0.43671573	     -6.83655156	     24.19974993	     -1.04503183	      1.45256990	     25.38902495	     25.38902495	     11.40563942	    -14.33005754	      5.08106552	     -7.78790388	      3.97738867	      4.79030428	     48.03873154	    -16.32769341	    -11.72127714	     44.04961043	     46.22784125	      0.00000000	      0.00000000	     -7.66135500	    -11.42980617	     18.59580541	     27.67401714	     44.99032524	      0.00000000	      0.00000000
     14.42428571	     -6.81898553	     -4.48860188	      7.54688317	      0.99214954	      0.92270695	      0.41584395	      2.67385924	     -4.08926148	    -15.84647359	     22.89678431	     22.89678431	     13.89460400	     -0.87398235	     -7.87033160	     24.11594364	     -1.10264374	      1.09948767	     26.19234212	     26.19234212	     11.97697374	    -14.90264997	      4.96700881	     -8.10454264	      4.34742262	      4.76495128	     45.08008269	    -16.13232713	    -11.86713652	     42.26939495	     46.27937330	      0.00000000	      0.00000000	     -5.86439050	    -11.58589216	     18.18651245	     28.26090518	     45.08864925	      0.00000000	      0.00000000
     14.44714286	     -6.80891705	     -4.58505474	      6.76584599	      0.99186266	      0.92151139	      0.41208291	      4.22073474	     -4.79843598	    -14.83065643	     26.20116264	     26.20116264	     13.33602667	     -1.90351748	     -9.49716011	     24.17780288	     -1.14167010	      0.74309590	     27.09401877	     27.09401877	     12.64700788	    -15.48200643	      5.06339592	     -8.34544422	      4.67597388	      4.87958671	     42.01219281	    -15.98999521	    -12.13927547	     39.92124083	     46.35843114	      0.00000000	      0.00000000	     -3.75950442	    -11.67081574	     17.76683319	     28.59226488	     45.19457119	      0.00000000	      0.00000000
     14.47000000	     -6.67556455	     -4.69112036	      5.99123269	      0.99149708	      0.92020740	      0.40851327	      5.83402578	     -5.33246590	    -13.34606749	     29.59248550	     29.59248550	     11.09256465	     -4.61328445	    -14.88350509	     24.25910377	     -1.21587955	      0.38385276	     28.31025744	     28.31025744	     14.07973202	    -15.76786552	      6.86343586	     -8.66367343	      5.05470190	      4.86364311	     39.61452339	    -15.39336588	    -13.77125475	     35.37226592	     46.58176951	      0.00000000	      0.00000000	     -0.89687349	    -11.31237134	     16.81117765	     27.03586394	     45.41936220	      0.00000000	      0.00000000
     14.49285714	     -6.58432493	     -4.70629701	      5.21527898	      0.99093136	      0.91834914	      0.40506919	      8.09577617	     -6.13739622	    -12.09831502	     34.23816395	     34.23816395	     10.27031404	     -6.00278903	    -16.01169901	     24.35676994	     -1.21033955	     -0.04900441	     29.41646633	     29.41646633	     14.77293357	    -16.30077879	      6.66781968	     -9.02456529	      5.31828319	      4.58768194	     36.20597320	    -14.87836603	    -13.96836022	     33.53761062	     46.63561856	      0.00000000	      0.00000000	      1.26358402	    -11.54758953	     16.51791974	     27.74007433	     45.50152908	      0.00000000	      0.00000000
     14.51571429	     -6.28711792	     -4.62437047	      4.44887582	      0.99037315	      0.91646524	      0.40181359	     10.36936039	     -6.93046545	    -10.68518162	     39.16916400	     39.16916400	      9.15781498	     -7.49799911	    -16.77702063	     24.27684627	     -1.14630641	     -0.57415986	     30.62174927	     30.62174927	     15.48922260	    -16.82002522	      6.46423678	     -9.63281234	      5.48148122	      4.09941619	     32.91205517	    -14.28259351	    -14.06102362	     31.77537124	     46.68408847	      0.00000000	      0.00000000	      3.56599389	    -11.90716470	     16.31861404	     28.32217911	     45.56941737	      0.00000000	      0.00000000
